<svg width="105" height="106" xmlns="http://www.w3.org/2000/svg" xmlns:xlink="http://www.w3.org/1999/xlink" xml:space="preserve" overflow="hidden"><defs><clipPath id="clip0"><rect x="35" y="511" width="105" height="106"/></clipPath><linearGradient x1="52.828" y1="105.363" x2="52.828" y2="0.514733" gradientUnits="userSpaceOnUse" spreadMethod="pad" id="fill1"><stop offset="0" stop-color="#198AB3"/><stop offset="0.4417" stop-color="#28B7DB"/><stop offset="0.7753" stop-color="#32D4F5"/><stop offset="1" stop-color="#32D4F5"/></linearGradient></defs><g clip-path="url(#clip0)" transform="translate(-35 -511)"><path d="M84.6425 93.9613C61.7532 111.766 28.8405 107.577 11.0377 84.6846-6.76513 61.7927-2.57626 28.8762 20.313 11.0714 20.4627 10.9218 20.6122 10.7722 20.9114 10.6225 43.9504-6.88301 76.8632-2.2448 94.3667 20.7968 111.721 43.8382 107.382 76.3059 84.6425 93.9613Z" fill="url(#fill1)" transform="matrix(1 0 0 1.00952 35 511)"/><path d="M60.8556 14.0637 21.8091 76.1561 70.7295 57.1543 60.8556 14.0637Z" fill="#9CEBFF" transform="matrix(1 0 0 1.00952 35 511)"/><path d="M52.9267 26.6318 77.1624 85.4326 60.8556 14.0637 52.9267 26.6318Z" fill="#FFFFFF" fill-opacity="0.7" transform="matrix(1 0 0 1.00952 35 511)"/><path d="M51.58 64.6354 66.2412 58.9498 77.1623 85.5822 51.58 64.6354Z" fill="#32BEDD" transform="matrix(1 0 0 1.00952 35 511)"/></g></svg>