<svg xmlns="http://www.w3.org/2000/svg" xmlns:xlink="http://www.w3.org/1999/xlink" viewBox="0 0 91 81" fill="#fff" fill-rule="evenodd" stroke="#000" stroke-linecap="round" stroke-linejoin="round"><use xlink:href="#A" x=".5" y=".5"/><symbol id="A" overflow="visible"><path d="M53.265 2.087C53.265.87 52.347 0 51.061 0H2.204C.918 0 0 .87 0 2.087v6.609h53.265V2.087zm-31.768 12.25c.11-.108.38-.337.727-.337h.342l1.776 1.31.362.337v.005h28.561v-5.217H0V43.13c0 1.217.918 2.087 2.204 2.087h14.327v-5.749l-1.44 1.716-6.058-6.104-.542-.511c-.364-.346-.364-.791 0-1.136l1.493-1.236.296-.282h.189c.367 0 .569.136.626.422l3.573 3.691 1.862-2.216v-7.91l-1.44 1.717-6.058-6.104-.542-.513c-.364-.346-.364-.791 0-1.136l1.493-1.238.296-.282h.189c.367 0 .569.136.626.423l3.573 3.691 1.862-2.214v-.767c0-2.118 1.642-3.717 3.846-3.809l1.12-1.332zm-3.13 5.141v6.609h53.265v-6.609c0-1.217-.918-2.087-2.204-2.087H20.572c-1.286 0-2.204.869-2.204 2.087zm69.429 15.304H38.939c-1.286 0-2.204.869-2.204 2.087v6.609H90V36.87c0-1.218-.918-2.087-2.204-2.087zm-47.932-3.054c.11-.108.38-.337.727-.337h.342l1.776 1.31.362.337v.005h28.561v-5.217H18.367v32.696c0 1.217.918 2.087 2.204 2.087h14.327v-5.749l-1.44 1.716-6.058-6.104-.542-.511c-.364-.346-.364-.791 0-1.136l1.493-1.236.296-.282h.189c.367 0 .569.136.626.423l3.573 3.69 1.862-2.216v-7.91l-1.44 1.716-6.058-6.104-.542-.513c-.364-.346-.364-.791 0-1.136l1.493-1.238.296-.282h.189c.367 0 .569.136.626.423l3.573 3.69 1.862-2.214v-.767c0-2.118 1.642-3.717 3.846-3.809l1.12-1.332zm-3.13 46.184c0 1.217.918 2.087 2.204 2.087h48.857C89.082 80 90 79.13 90 77.913V45.217H36.735v32.696zm25.714-22.261h20.204v3.478H62.449v-3.478zm0 13.913h20.204v3.478H62.449v-3.478zM45.226 54.65l1.493-1.238.296-.282h.189c.367 0 .569.136.626.423l3.572 3.69 6.829-8.123c.11-.108.38-.337.727-.337h.342l1.776 1.31.362.337v.504l-9.614 11.469-6.058-6.104-.542-.513c-.364-.346-.364-.791 0-1.136zm0 13.567l1.493-1.236.296-.282h.189c.367 0 .569.136.626.423l3.572 3.69 6.829-8.123c.11-.108.38-.337.727-.337h.342l1.776 1.308.362.337v.503l-9.614 11.469-6.058-6.104-.542-.511c-.364-.346-.364-.791 0-1.136z" fill="#0072c6" stroke="none"/></symbol></svg>