<?xml version="1.0" encoding="UTF-8"?>
<svg version="1.1" xmlns="http://www.w3.org/2000/svg" width="334" height="334">
<path d="M0 0 C110.22 0 220.44 0 334 0 C334 110.22 334 220.44 334 334 C223.78 334 113.56 334 0 334 C0 223.78 0 113.56 0 0 Z " fill="#FEFDFC" transform="translate(0,0)"/>
<path d="M0 0 C110.22 0 220.44 0 334 0 C334 110.22 334 220.44 334 334 C223.78 334 113.56 334 0 334 C0 223.78 0 113.56 0 0 Z M113.421875 7.1328125 C112.68453125 7.60203125 111.9471875 8.07125 111.1875 8.5546875 C110.383125 9.07289062 109.57875 9.59109375 108.75 10.125 C107.90953125 10.66125 107.0690625 11.1975 106.203125 11.75 C104.39792138 12.90214466 102.59392679 14.05618539 100.79101562 15.21191406 C97.12072398 17.56331504 93.44276464 19.90256355 89.76464844 22.24169922 C87.90815116 23.422421 86.05203659 24.60374472 84.19628906 25.78564453 C77.53583564 30.02739987 70.86263131 34.24852595 64.18359375 38.4609375 C57.18199623 42.87930789 50.19835152 47.32564456 43.21557617 51.77368164 C36.30454778 56.17427028 29.38128363 60.55513573 22.4519043 64.92675781 C16.62515925 68.60310412 10.80765269 72.293543 5 76 C6.38251995 80.03234986 8.24039763 82.76732294 11 86 C14.40251267 90.06123912 17.72005691 94.16460486 20.9375 98.375 C21.35612305 98.92196533 21.77474609 99.46893066 22.20605469 100.0324707 C23.05504748 101.14282967 23.90351848 102.2535878 24.75146484 103.36474609 C30.79189958 111.27613284 36.88506344 119.14614888 43 127 C47.9029561 133.29721779 52.78931858 139.60640044 57.6484375 145.9375 C59.64314514 148.53525879 61.64160781 151.12992829 63.64999866 153.71712589 C64.85343163 155.28441055 66.02784366 156.87384235 67.20158386 158.46348572 C69.01026698 160.84573617 70.8947661 162.90484464 73.07783508 164.94581604 C83.28380132 175.19731691 83.47164005 186.66305761 83.49681515 200.32338256 C83.48256199 203.50891646 83.43493012 206.69357588 83.38572478 209.8787353 C83.3346057 214.0369014 83.35314953 218.19478192 83.36408997 222.35316467 C83.37457807 230.20382408 83.3253172 238.05286391 83.25306922 245.90315205 C83.16547748 255.72637948 83.15313538 265.54948501 83.14257812 275.37304688 C83.13854148 278.80953573 83.1339913 282.24602316 83.1287384 285.68251038 C83.12747918 286.51384084 83.12621996 287.3451713 83.12492257 288.20169359 C83.11407898 293.94369999 83.08251695 299.68536449 83.04203796 305.42723083 C83.02781122 307.6912759 83.01388401 309.95532263 83.00001144 312.21936989 C82.98542966 314.32433303 82.96549627 316.42920192 82.94541931 318.53411865 C82.93786621 319.77449387 82.93031311 321.01486908 82.92253113 322.29283142 C82.91339786 323.37728011 82.90426458 324.4617288 82.89485455 325.57903957 C82.72464533 327.94989839 82.72464533 327.94989839 84 329 C86.15159726 329.096937 88.30644111 329.12186783 90.46022034 329.12025452 C91.14302801 329.12110894 91.82583568 329.12196337 92.52933449 329.12284368 C94.83411691 329.12450043 97.13882772 329.11897397 99.44360352 329.11352539 C101.08905028 329.11324353 102.73449716 329.11340122 104.37994385 329.1139679 C108.86115759 329.11425593 113.34234481 329.10835821 117.82355237 329.10139394 C122.50142105 329.09516142 127.17929028 329.09455668 131.85716248 329.09336853 C140.72175168 329.09025491 149.58632862 329.08204111 158.45091242 329.07201904 C170.42512564 329.05877388 182.3993422 329.05335824 194.37356091 329.04751682 C213.2490498 329.03810124 232.1245128 329.01818253 251 329 C251 279.17 251 229.34 251 178 C253.475 177.01 253.475 177.01 256 176 C257.65455893 175.01178797 259.28262974 173.97834477 260.88671875 172.91015625 C262.28059814 171.98928223 262.28059814 171.98928223 263.70263672 171.04980469 C264.6876416 170.39399414 265.67264648 169.73818359 266.6875 169.0625 C273.84864575 164.33950288 281.03008748 159.68245806 288.375 155.25 C295.64992601 150.85451228 302.8051653 146.29911679 309.921875 141.65234375 C312.64802187 139.87252202 315.38701331 138.11593053 318.140625 136.37890625 C318.79192383 135.96656738 319.44322266 135.55422852 320.11425781 135.12939453 C321.34037138 134.35442218 322.56877502 133.58305718 323.79980469 132.81591797 C326.92798019 130.92024057 326.92798019 130.92024057 329 128 C322.76047862 119.61530286 316.48084992 111.27277814 310 103.07275391 C306.62525988 98.8023539 303.29439332 94.50033375 299.984375 90.17944336 C297.51878597 86.96461283 295.03773255 83.7625738 292.54296875 80.5703125 C286.21913432 72.47722456 279.94308216 64.37937671 274 56 C270.51306685 57.29787549 267.49140789 58.82050013 264.3671875 60.8359375 C263.48869141 61.39925781 262.61019531 61.96257813 261.70507812 62.54296875 C260.77115234 63.14753906 259.83722656 63.75210938 258.875 64.375 C256.88301773 65.65396554 254.89082677 66.93260608 252.8984375 68.2109375 C251.90295898 68.8512793 250.90748047 69.49162109 249.88183594 70.15136719 C245.76857451 72.7899317 241.63541508 75.39635116 237.5 78 C230.4510653 82.44689828 223.4097263 86.90565743 216.375 91.375 C215.47458984 91.94605469 214.57417969 92.51710938 213.64648438 93.10546875 C208.63515579 96.29212147 203.68343155 99.54129035 198.79931641 102.92041016 C197 104 197 104 195 104 C193.10762237 101.6611063 191.32445643 99.30965314 189.5625 96.875 C188.4687736 95.38964793 187.37369649 93.9052896 186.27734375 92.421875 C185.72546387 91.67357422 185.17358398 90.92527344 184.60498047 90.15429688 C182.33107808 87.10213462 179.98799641 84.10842588 177.625 81.125 C176.72254774 79.98315867 175.82020687 78.8412293 174.91796875 77.69921875 C174.21873291 76.81435791 174.21873291 76.81435791 173.50537109 75.91162109 C165.80546325 66.13376212 158.2035415 56.27829748 150.625 46.40625 C147.43371959 42.25758547 144.21567125 38.12976633 141 34 C124.61434832 12.94663872 124.61434832 12.94663872 121 7.6875 C120.01 6.3571875 120.01 6.3571875 119 5 C116.47227301 5 115.54400056 5.77297817 113.421875 7.1328125 Z " fill="#FEFEFE" transform="translate(0,0)"/>
<path d="M0 0 C53.46 0 106.92 0 162 0 C162 48.18 162 96.36 162 146 C108.54 146 55.08 146 0 146 C0 97.82 0 49.64 0 0 Z " fill="#FEFEFD" transform="translate(86,179)"/>
<path d="M0 0 C3.43814676 1.2995926 5.27237791 4.41468367 7.43652344 7.25561523 C7.95875488 7.92488037 8.48098633 8.59414551 9.01904297 9.28369141 C10.69040659 11.43248086 12.34613928 13.59258762 13.99902344 15.75561523 C15.06017992 17.13715748 16.12137735 18.51866827 17.18261719 19.90014648 C19.33934479 22.71355726 21.48899826 25.53223797 23.63574219 28.35327148 C27.12225025 32.92784054 30.65074599 37.46907363 34.18652344 42.00561523 C40.60803218 50.24652215 46.9831225 58.52155768 53.34277344 66.81030273 C54.53386719 68.36104492 54.53386719 68.36104492 55.74902344 69.94311523 C56.34191162 70.71788208 56.34191162 70.71788208 56.94677734 71.50830078 C59.51374587 74.85440202 62.11650306 78.16940951 64.74121094 81.47045898 C65.38348633 82.28297119 66.02576172 83.0954834 66.6875 83.93261719 C67.96216038 85.5439409 69.24262318 87.15069424 70.52929688 88.75244141 C71.10969727 89.48825439 71.69009766 90.22406738 72.28808594 90.98217773 C72.81096191 91.63782715 73.33383789 92.29347656 73.87255859 92.96899414 C74.99902344 94.75561523 74.99902344 94.75561523 74.99902344 97.75561523 C73.14501953 99.25097656 73.14501953 99.25097656 70.52246094 100.83764648 C69.5529248 101.43262939 68.58338867 102.0276123 67.58447266 102.640625 C66.52502441 103.27669678 65.46557617 103.91276855 64.37402344 104.56811523 C62.15472021 105.92658685 59.93598184 107.28598165 57.71777344 108.64624023 C57.15250946 108.99086807 56.58724548 109.33549591 56.00485229 109.69056702 C50.58283548 112.99665708 45.22360366 116.39650446 39.87402344 119.81811523 C38.0628801 120.97314873 36.25168209 122.12809652 34.44042969 123.28295898 C33.54598145 123.85385254 32.6515332 124.42474609 31.72998047 125.01293945 C27.09260123 127.97213961 22.45225856 130.9266815 17.81152344 133.88061523 C16.89830322 134.46190186 15.98508301 135.04318848 15.04418945 135.64208984 C8.37404497 139.88564375 1.70012234 144.12327569 -4.99389648 148.32910156 C-9.11828569 150.92211263 -13.22102189 153.54354909 -17.30175781 156.20483398 C-18.1716333 156.76734863 -19.04150879 157.32986328 -19.93774414 157.90942383 C-21.61357341 158.99386845 -23.284245 160.08633632 -24.94897461 161.18774414 C-25.69832275 161.67033691 -26.4476709 162.15292969 -27.21972656 162.65014648 C-27.87908203 163.08174072 -28.5384375 163.51333496 -29.21777344 163.95800781 C-31.00097656 164.75561523 -31.00097656 164.75561523 -34.00097656 163.75561523 C-35.77050781 161.66577148 -35.77050781 161.66577148 -37.81347656 158.81811523 C-38.61115934 157.72305442 -39.4107677 156.62939464 -40.21191406 155.53686523 C-40.87271973 154.63387695 -40.87271973 154.63387695 -41.546875 153.71264648 C-44.28113713 150.0326859 -47.11546439 146.43013971 -49.93847656 142.81811523 C-51.15091885 141.26358581 -52.36316063 139.70889998 -53.57519531 138.15405273 C-54.15833496 137.40607422 -54.74147461 136.6580957 -55.34228516 135.88745117 C-60.04051726 129.84904041 -64.68744156 123.77092252 -69.34472656 117.70092773 C-74.20837412 111.36871127 -79.09582233 105.05574683 -84.00097656 98.75561523 C-88.97594764 92.36507292 -93.94797422 85.9727274 -98.86425781 79.53686523 C-100.21914876 77.77327774 -101.58981052 76.02160525 -102.98144531 74.28686523 C-103.54476562 73.57530273 -104.10808594 72.86374023 -104.68847656 72.13061523 C-105.16671875 71.54022461 -105.64496094 70.94983398 -106.13769531 70.34155273 C-106.42257813 69.81819336 -106.70746094 69.29483398 -107.00097656 68.75561523 C-105.76495907 65.04756277 -104.70714179 64.67032609 -101.42675781 62.67358398 C-100.46020264 62.07843994 -99.49364746 61.4832959 -98.49780273 60.87011719 C-97.4469751 60.23420654 -96.39614746 59.5982959 -95.31347656 58.94311523 C-93.10720777 57.58722207 -90.90149026 56.23043153 -88.69628906 54.87280273 C-87.57512695 54.18541016 -86.45396484 53.49801758 -85.29882812 52.78979492 C-80.39656044 49.76597982 -75.54092827 46.67102283 -70.68847656 43.56811523 C-68.86573224 42.40508467 -67.04281773 41.24232078 -65.21972656 40.07983398 C-64.34316406 39.52086426 -63.46660156 38.96189453 -62.56347656 38.38598633 C-58.6126367 35.87229458 -54.65045623 33.3766962 -50.68847656 30.88061523 C-43.16908112 26.13998697 -35.67571444 21.35934725 -28.18847656 16.56811523 C-27.12113281 15.8870874 -26.05378906 15.20605957 -24.95410156 14.50439453 C-20.4218376 11.608664 -15.89898258 8.70630498 -11.43847656 5.70092773 C-10.78983643 5.26804443 -10.14119629 4.83516113 -9.47290039 4.38916016 C-7.83380246 3.29052276 -6.20401906 2.17802196 -4.57519531 1.06420898 C-2.00097656 -0.24438477 -2.00097656 -0.24438477 0 0 Z " fill="#FEFEFE" transform="translate(117.0009765625,10.244384765625)"/>
<path d="M0 0 C2.25414473 1.44168916 3.51957289 2.84928326 5.13500977 4.97631836 C5.70251953 5.715354 6.2700293 6.45438965 6.85473633 7.21582031 C7.44996094 8.00690186 8.04518555 8.7979834 8.65844727 9.61303711 C9.27945313 10.42538818 9.90045898 11.23773926 10.5402832 12.07470703 C11.79473079 13.71659565 13.0460709 15.36086344 14.29418945 17.00756836 C16.20888057 19.53182144 18.14057275 22.04239019 20.0769043 24.55004883 C22.85218007 28.14521586 25.61250897 31.7519142 28.37719727 35.35522461 C29.17125977 36.38905273 29.96532227 37.42288086 30.78344727 38.48803711 C31.17943115 39.00527344 31.57541504 39.52250977 31.98339844 40.05541992 C34.54016228 43.38715753 37.12998453 46.69037796 39.74047852 49.98022461 C40.37824219 50.7882251 41.01600586 51.59622559 41.6730957 52.42871094 C42.93525082 54.02659675 44.20267198 55.62033986 45.47583008 57.20947266 C46.34159668 58.30835815 46.34159668 58.30835815 47.22485352 59.42944336 C47.74249268 60.07985596 48.26013184 60.73026855 48.79345703 61.40039062 C50.08517425 63.37980293 50.60706983 64.9902708 51.03344727 67.30053711 C49.93129883 67.96698242 48.82915039 68.63342773 47.69360352 69.32006836 C39.2155008 74.46388443 30.80695416 79.69181151 22.49804688 85.10473633 C16.46518097 89.03237257 10.39293877 92.89447875 4.29541016 96.72094727 C0.07894049 99.36808543 -4.11678138 102.04172251 -8.28686523 104.76147461 C-9.1539209 105.32229736 -10.02097656 105.88312012 -10.91430664 106.4609375 C-12.58600042 107.543045 -14.25257844 108.6331066 -15.91333008 109.73193359 C-16.66308105 110.21476807 -17.41283203 110.69760254 -18.18530273 111.19506836 C-19.17433594 111.84245972 -19.17433594 111.84245972 -20.18334961 112.50292969 C-21.96655273 113.30053711 -21.96655273 113.30053711 -24.96655273 112.30053711 C-26.73608398 110.21069336 -26.73608398 110.21069336 -28.77905273 107.36303711 C-29.57673551 106.2679763 -30.37634387 105.17431651 -31.17749023 104.08178711 C-31.8382959 103.17879883 -31.8382959 103.17879883 -32.51245117 102.25756836 C-35.24671331 98.57760777 -38.08104056 94.97506159 -40.90405273 91.36303711 C-42.11649502 89.80850769 -43.3287368 88.25382186 -44.54077148 86.69897461 C-45.12391113 85.95099609 -45.70705078 85.20301758 -46.30786133 84.43237305 C-50.21800389 79.4068557 -54.09010211 74.35205679 -57.96655273 69.30053711 C-59.26480854 67.61028031 -60.56342486 65.92030253 -61.86254883 64.23071289 C-62.71116583 63.1267087 -63.55916671 62.02223058 -64.40649414 60.91723633 C-67.48455563 56.90799658 -70.61689795 52.94446321 -73.78686523 49.00756836 C-74.96655273 47.30053711 -74.96655273 47.30053711 -74.96655273 45.30053711 C-73.24853516 43.97875977 -73.24853516 43.97875977 -70.82202148 42.46459961 C-69.92717041 41.90111816 -69.03231934 41.33763672 -68.11035156 40.75708008 C-67.13477295 40.1526709 -66.15919434 39.54826172 -65.15405273 38.92553711 C-64.15591553 38.29921387 -63.15777832 37.67289063 -62.12939453 37.02758789 C-60.06873032 35.73491065 -58.00629202 34.44505743 -55.94213867 33.15795898 C-52.4818244 30.99795973 -49.03368985 28.81924258 -45.58740234 26.63696289 C-43.27138966 25.17068558 -40.95325306 23.70782291 -38.63452148 22.24584961 C-34.5999701 19.70138459 -30.5693258 17.1507955 -26.53979492 14.59838867 C-24.15506546 13.09069174 -21.76611168 11.58987556 -19.37670898 10.08959961 C-16.57029337 8.32487196 -13.78824709 6.53070091 -11.02514648 4.69897461 C-10.42879395 4.31128906 -9.83244141 3.92360352 -9.21801758 3.52416992 C-7.64970183 2.50401657 -6.09090415 1.46927143 -4.53295898 0.43334961 C-1.96655273 -0.69946289 -1.96655273 -0.69946289 0 0 Z " fill="#FEFDFD" transform="translate(272.966552734375,61.699462890625)"/>
<path d="M0 0 C1.89237763 2.3388937 3.67554357 4.69034686 5.4375 7.125 C6.5312264 8.61035207 7.62630351 10.0947104 8.72265625 11.578125 C9.55047607 12.70057617 9.55047607 12.70057617 10.39501953 13.84570312 C12.66892192 16.89786538 15.01200359 19.89157412 17.375 22.875 C18.27745226 24.01684133 19.17979313 25.1587707 20.08203125 26.30078125 C20.54818848 26.89068848 21.0143457 27.4805957 21.49462891 28.08837891 C29.19453675 37.86623788 36.7964585 47.72170252 44.375 57.59375 C47.56628041 61.74241453 50.78432875 65.87023367 54 70 C71.06319905 91.92391864 71.06319905 91.92391864 76 99 C80.62391093 97.40248759 84.39279386 94.93360774 88.4375 92.25 C89.959082 91.25306108 91.48124674 90.25701118 93.00390625 89.26171875 C93.81230957 88.73239746 94.62071289 88.20307617 95.45361328 87.65771484 C99.90604618 84.75915114 104.39070401 81.91142549 108.875 79.0625 C109.8023999 78.47283447 110.7297998 77.88316895 111.68530273 77.27563477 C118.56112635 72.90685235 125.4465288 68.55330443 132.34106445 64.21411133 C135.98448127 61.91820085 139.61624932 59.60760591 143.22265625 57.25390625 C143.87427734 56.82956299 144.52589844 56.40521973 145.19726562 55.96801758 C146.40564661 55.17893214 147.61154923 54.386033 148.81445312 53.58862305 C152.77959028 51 152.77959028 51 155 51 C156.89236637 53.33887978 158.67562171 55.69030894 160.4375 58.125 C161.5259813 59.60386835 162.61585243 61.08171464 163.70703125 62.55859375 C164.2582666 63.30608887 164.80950195 64.05358398 165.37744141 64.82373047 C167.73771433 67.98946517 170.17289844 71.09265728 172.625 74.1875 C176.45928577 79.03718413 180.25587942 83.91259331 184.015625 88.82055664 C186.48121403 92.03538717 188.96226745 95.2374262 191.45703125 98.4296875 C197.78086568 106.52277544 204.05691784 114.62062329 210 123 C206.04303758 127.34642722 201.80130477 130.16336707 196.75 133.125 C195.12777284 134.09576473 193.50670526 135.06846947 191.88671875 136.04296875 C191.06864746 136.53458496 190.25057617 137.02620117 189.40771484 137.53271484 C185.74641034 139.76394989 182.1521592 142.09328467 178.5625 144.4375 C171.78910122 148.85362969 164.97041353 153.19163974 158.12353516 157.49291992 C154.09078988 160.03114791 150.07628626 162.59266095 146.08984375 165.203125 C145.30738281 165.71488281 144.52492188 166.22664062 143.71875 166.75390625 C142.22783873 167.73167854 140.73943838 168.71329313 139.25390625 169.69921875 C134.21948025 173 134.21948025 173 132 173 C132 222.83 132 272.66 132 324 C90.16097237 324.04030303 90.16097237 324.04030303 72.68554688 324.04882812 C60.59887266 324.05477159 48.51220539 324.06177457 36.42553711 324.07543945 C27.62455536 324.0853849 18.82357922 324.09185309 10.02259201 324.09408849 C5.35953733 324.09539584 0.69649872 324.09848318 -3.96655083 324.10573006 C-8.35032366 324.11248809 -12.73407371 324.11461741 -17.11785126 324.11310768 C-18.73160234 324.11338411 -20.34535413 324.11539052 -21.95910072 324.11920547 C-24.1526889 324.12413934 -26.3461897 324.12299944 -28.53977966 324.12025452 C-30.38567011 324.12163721 -30.38567011 324.12163721 -32.26885128 324.12304783 C-35 324 -35 324 -36 323 C-36.08255304 321.09922707 -36.09349178 319.19532873 -36.07746887 317.29283142 C-36.06991577 316.05245621 -36.06236267 314.81208099 -36.05458069 313.53411865 C-36.04814608 312.85949837 -36.04171146 312.18487808 -36.03508186 311.48981476 C-36.01451767 309.33150153 -35.99970576 307.17321684 -35.98648071 305.0148468 C-35.97218488 302.68933251 -35.95751505 300.3638267 -35.94112074 298.03832614 C-35.90077322 292.2530416 -35.88002482 286.46792514 -35.8712616 280.68251038 C-35.86933618 279.42288377 -35.86933618 279.42288377 -35.86737186 278.13781017 C-35.86248851 274.66973898 -35.85831238 271.2016674 -35.85458529 267.73359478 C-35.84331483 257.9016172 -35.81289452 248.07061067 -35.72241211 238.23901367 C-35.6506903 230.43229679 -35.62203564 222.62672609 -35.64257544 214.81968886 C-35.65186084 210.69229894 -35.64036325 206.56746524 -35.57660866 202.44050407 C-34.6303449 180.46099292 -34.6303449 180.46099292 -44.32782459 161.54167843 C-45.35320829 160.51131415 -46.3965843 159.49846578 -47.4591856 158.5065279 C-50.07362626 155.95026428 -52.17310711 153.03899226 -54.375 150.125 C-55.27613655 148.98212003 -56.17816816 147.83994362 -57.08203125 146.69921875 C-66.95374364 134.20687894 -76.65176583 121.57719853 -86.34375 108.9453125 C-91.86698715 101.75434465 -97.42240953 94.58926802 -103.00292969 87.44262695 C-104.67394253 85.29915227 -106.33798965 83.15046001 -108 81 C-108.86915039 79.8855249 -108.86915039 79.8855249 -109.75585938 78.74853516 C-110.30564453 78.03358887 -110.85542969 77.31864258 -111.421875 76.58203125 C-111.9178418 75.94112549 -112.41380859 75.30021973 -112.92480469 74.63989258 C-114 73 -114 73 -114 71 C-112.60498047 69.89355469 -112.60498047 69.89355469 -110.6171875 68.671875 C-109.50186646 67.97795654 -109.50186646 67.97795654 -108.36401367 67.27001953 C-107.54263916 66.76841309 -106.72126465 66.26680664 -105.875 65.75 C-104.11813846 64.6594196 -102.3616421 63.56825075 -100.60546875 62.4765625 C-99.6829834 61.90583008 -98.76049805 61.33509766 -97.81005859 60.74707031 C-93.24597975 57.90949011 -88.71767152 55.01628789 -84.1875 52.125 C-82.33081808 50.94256871 -80.47404648 49.76027822 -78.6171875 48.578125 C-76.74476538 47.38545793 -74.8723696 46.19274951 -73 45 C-61.74777387 37.83203101 -50.49179609 30.67061417 -39.20703125 23.55395508 C-31.97767719 18.99225092 -24.76642077 14.40226934 -17.55859375 9.80664062 C-15.84298965 8.71338846 -14.12640258 7.62167684 -12.40869141 6.53173828 C-10.81856158 5.52054078 -9.23219793 4.50339334 -7.64990234 3.47998047 C-6.57603271 2.79186279 -6.57603271 2.79186279 -5.48046875 2.08984375 C-4.85422607 1.68499756 -4.2279834 1.28015137 -3.58276367 0.86303711 C-2 0 -2 0 0 0 Z M-8.7890625 7.796875 C-9.72153809 8.42045898 -10.65401367 9.04404297 -11.61474609 9.68652344 C-12.60812988 10.3674707 -13.60151367 11.04841797 -14.625 11.75 C-16.71212147 13.14795599 -18.80067878 14.54377055 -20.890625 15.9375 C-21.92638672 16.63101562 -22.96214844 17.32453125 -24.02929688 18.0390625 C-28.08288403 20.71480314 -32.2126106 23.24811609 -36.375 25.75 C-42.84393965 29.6566561 -49.21598676 33.68714236 -55.54760742 37.81225586 C-60.73408576 41.18904011 -65.95081922 44.51414185 -71.1875 47.8125 C-78.40527568 52.36022443 -85.61368546 56.92230763 -92.8125 61.5 C-93.73764404 62.0875708 -94.66278809 62.6751416 -95.6159668 63.28051758 C-100.11041662 66.13994536 -104.58343639 69.0215571 -109 72 C-107.44068998 77.08982328 -104.30359066 80.56631074 -100.9375 84.5625 C-99.74567275 86.00248184 -98.55557515 87.44389697 -97.3671875 88.88671875 C-96.78678711 89.59103027 -96.20638672 90.2953418 -95.60839844 91.02099609 C-92.77115245 94.5119973 -90.1131355 98.13103476 -87.4375 101.74609375 C-84.37730715 105.85985982 -81.21559193 109.8948052 -78.0625 113.9375 C-71.55612968 122.28151432 -65.09716339 130.66003038 -58.65625 139.0546875 C-57.8621875 140.08851563 -57.068125 141.12234375 -56.25 142.1875 C-55.85329102 142.70401123 -55.45658203 143.22052246 -55.04785156 143.75268555 C-52.48631289 147.08258584 -49.91092335 150.40140281 -47.328125 153.71484375 C-46.69487305 154.52735596 -46.06162109 155.33986816 -45.40917969 156.17700195 C-44.15560015 157.78437305 -42.9010728 159.39100549 -41.64550781 160.99682617 C-41.07155273 161.73263916 -40.49759766 162.46845215 -39.90625 163.2265625 C-39.39384766 163.88221191 -38.88144531 164.53786133 -38.35351562 165.21337891 C-37.17709844 166.76623262 -36.08064255 168.37903617 -35 170 C-31.40500673 168.66445339 -28.2775018 167.05870421 -25.03515625 165.015625 C-24.0814917 164.4172583 -23.12782715 163.8188916 -22.14526367 163.20239258 C-21.12795166 162.55810303 -20.11063965 161.91381348 -19.0625 161.25 C-18.00071533 160.58186279 -16.93893066 159.91372559 -15.8449707 159.2253418 C-6.9545839 153.62407487 1.91076173 147.98313646 10.76953125 142.33203125 C15.67055606 139.20680539 20.58314765 136.10024824 25.5 133 C32.40801279 128.64399659 39.30067505 124.26441793 46.1875 119.875 C55.09377153 114.19941949 64.03138084 108.57647667 73 103 C72.39180659 99.70458937 71.26899242 97.73938923 69.19140625 95.12890625 C68.61455078 94.39671875 68.03769531 93.66453125 67.44335938 92.91015625 C66.82267578 92.13542969 66.20199219 91.36070313 65.5625 90.5625 C64.27183889 88.92861961 62.9814756 87.29450392 61.69140625 85.66015625 C60.74031982 84.46156982 60.74031982 84.46156982 59.77001953 83.23876953 C57.4840964 80.34747089 55.23949476 77.42741969 53 74.5 C49.02101001 69.31684199 45.01462082 64.15560138 41 59 C34.51773201 50.6744784 28.07925899 42.31663422 21.65625 33.9453125 C19.85228374 31.59663813 19.85228374 31.59663813 18.04345703 29.25170898 C15.47101235 25.92375262 12.92678256 22.57646876 10.3984375 19.21484375 C9.14083499 17.55973626 7.88302363 15.90478743 6.625 14.25 C6.02977539 13.45053955 5.43455078 12.6510791 4.82128906 11.82739258 C4.2537793 11.08513428 3.68626953 10.34287598 3.1015625 9.578125 C2.59963379 8.91200195 2.09770508 8.24587891 1.58056641 7.55957031 C-2.20527287 3.82402176 -4.72988994 5.03388889 -8.7890625 7.796875 Z M152 56 C149.28373619 57.42718946 146.76513649 58.91277936 144.1875 60.5625 C143.39633789 61.0577417 142.60517578 61.5529834 141.79003906 62.06323242 C139.18623748 63.6978187 136.59271192 65.34788879 134 67 C132.23065912 68.12009244 130.46112639 69.23988188 128.69140625 70.359375 C124.0748727 73.28565218 119.46770179 76.22637131 114.86279297 79.17089844 C110.01720533 82.26685124 105.16447931 85.35157795 100.3125 88.4375 C98.57939411 89.54031276 96.84632011 90.64317565 95.11328125 91.74609375 C87.05664062 96.87304688 87.05664062 96.87304688 79 102 C80.26997595 104.67744427 81.65102386 107.03324173 83.43359375 109.3984375 C83.91199707 110.03547607 84.39040039 110.67251465 84.88330078 111.32885742 C85.39618652 112.00408447 85.90907227 112.67931152 86.4375 113.375 C86.97101074 114.08180908 87.50452148 114.78861816 88.05419922 115.5168457 C92.42160045 121.28349262 96.87770209 126.97746736 101.36328125 132.65234375 C104.69702149 136.87394622 107.96545418 141.14515762 111.23828125 145.4140625 C113.36999659 148.18872683 115.51677297 150.95135062 117.66796875 153.7109375 C118.30178467 154.52401367 118.93560059 155.33708984 119.58862305 156.17480469 C120.84310242 157.78292258 122.09844536 159.39036727 123.35473633 160.99707031 C124.2155481 162.10066895 124.2155481 162.10066895 125.09375 163.2265625 C125.60615234 163.88221191 126.11855469 164.53786133 126.64648438 165.21337891 C127.82290156 166.76623262 128.91935745 168.37903617 130 170 C133.59499327 168.66445339 136.7224982 167.05870421 139.96484375 165.015625 C141.39497803 164.11831665 141.39497803 164.11831665 142.85400391 163.20288086 C143.87155762 162.55843018 144.88911133 161.91397949 145.9375 161.25 C147.00145996 160.5804126 148.06541992 159.9108252 149.16162109 159.22094727 C152.44439716 157.1524919 155.72295998 155.07752909 159 153 C160.44511963 152.08420166 160.44511963 152.08420166 161.91943359 151.14990234 C168.28679475 147.11116334 174.644368 143.05716293 181 139 C185.08253069 136.39457238 189.16603046 133.79067149 193.25 131.1875 C194.19762207 130.58220459 195.14524414 129.97690918 196.12158203 129.35327148 C196.99411621 128.79712158 197.86665039 128.24097168 198.765625 127.66796875 C199.53680664 127.17578857 200.30798828 126.6836084 201.10253906 126.17651367 C203 125 203 125 205 124 C203.39100492 118.66491104 199.9199684 114.78036045 196.5 110.5 C195.21845598 108.87523187 193.93720726 107.25023077 192.65625 105.625 C192.02847656 104.83222656 191.40070313 104.03945312 190.75390625 103.22265625 C188.47544429 100.33525122 186.23538062 97.42089734 184 94.5 C179.42606702 88.54185046 174.81882316 82.61003161 170.19604492 76.68969727 C167.43170479 73.14573958 164.68262004 69.5936535 161.98828125 65.99609375 C161.53259766 65.39087891 161.07691406 64.78566406 160.60742188 64.16210938 C159.39568074 62.54828219 158.19168949 60.92864417 156.98828125 59.30859375 C155.13779597 56.76122802 155.13779597 56.76122802 152 56 Z M69.4140625 107.82421875 C68.49423584 108.43402588 67.57440918 109.04383301 66.62670898 109.67211914 C65.63614502 110.33719482 64.64558105 111.00227051 63.625 111.6875 C61.526067 113.0775273 59.42577845 114.46550967 57.32421875 115.8515625 C56.26251465 116.5518457 55.20081055 117.25212891 54.10693359 117.97363281 C49.59774731 120.91456053 45.02615934 123.74773693 40.4375 126.5625 C30.49161246 132.67526216 20.63892896 138.92679101 10.80126953 145.21191406 C6.98272854 147.6493373 3.1594709 150.07931129 -0.66381836 152.50927734 C-4.28818775 154.81362376 -7.91020317 157.12165599 -11.53222656 159.4296875 C-13.85000778 160.9045558 -16.17071506 162.37470137 -18.4921875 163.84375 C-19.78654368 164.66653242 -21.08082111 165.48943874 -22.375 166.3125 C-23.47585937 167.00988281 -24.57671875 167.70726562 -25.7109375 168.42578125 C-26.84402344 169.20501953 -26.84402344 169.20501953 -28 170 C-28 170.33 -28 170.66 -28 171 C23.15 171 74.3 171 127 171 C124.6695656 167.50434841 122.4665929 164.20788883 119.8984375 160.93359375 C119.04717285 159.84437622 119.04717285 159.84437622 118.17871094 158.7331543 C117.58348633 157.97558838 116.98826172 157.21802246 116.375 156.4375 C115.11691748 154.82833607 113.85910645 153.21895985 112.6015625 151.609375 C111.67972168 150.43084961 111.67972168 150.43084961 110.73925781 149.22851562 C107.58763552 145.19033366 104.47034425 141.12605928 101.3515625 137.0625 C99.76606157 134.99766158 98.17744908 132.93520916 96.5859375 130.875 C96.18093018 130.35035156 95.77592285 129.82570312 95.35864258 129.28515625 C94.54169535 128.22715057 93.7238361 127.16984844 92.9050293 126.11328125 C90.49073694 122.98450229 88.13197073 119.82198896 85.80859375 116.625 C85.26895996 115.88805908 84.72932617 115.15111816 84.17333984 114.3918457 C83.11472192 112.94318531 82.06399278 111.48872086 81.02197266 110.02807617 C79.75285512 108.29724849 78.38371343 106.64065869 77 105 C73.40257221 105 72.3681375 105.84440973 69.4140625 107.82421875 Z M-33 174 C-33 222.18 -33 270.36 -33 320 C20.46 320 73.92 320 129 320 C129 271.82 129 223.64 129 174 C75.54 174 22.08 174 -33 174 Z " fill="#FC500F" transform="translate(119,5)"/>
<path d="M0 0 C0.66112763 -0.00155999 1.32225527 -0.00311998 2.00341707 -0.00472724 C4.22899007 -0.00873058 6.45449541 -0.00555016 8.68006897 -0.00241089 C10.27153565 -0.00376524 11.86300201 -0.00554536 13.45446777 -0.00772095 C17.78499896 -0.01229164 22.11550639 -0.01050711 26.44603801 -0.00734186 C30.97168592 -0.00481595 35.49733175 -0.00715649 40.02297974 -0.00872803 C47.62515123 -0.01054923 55.22731301 -0.00814489 62.82948303 -0.00338745 C71.62496148 0.00205312 80.42041675 0.0002938 89.21589464 -0.00521386 C96.75902122 -0.00974871 104.30214081 -0.01039364 111.84526831 -0.00777519 C116.35409364 -0.00621422 120.86290807 -0.0060137 125.37173271 -0.00931168 C129.61108678 -0.01219571 133.85041091 -0.01020484 138.08976173 -0.00441742 C139.64784572 -0.00309261 141.20593221 -0.00347924 142.7640152 -0.00568008 C144.88673777 -0.00840254 147.0093637 -0.00499695 149.13208008 0 C150.32136077 0.00037703 151.51064146 0.00075405 152.73596096 0.0011425 C155.62953186 0.12698364 155.62953186 0.12698364 158.62953186 1.12698364 C158.62953186 1.78698364 158.62953186 2.44698364 158.62953186 3.12698364 C103.51953186 3.12698364 48.40953186 3.12698364 -8.37046814 3.12698364 C-8.37046814 2.46698364 -8.37046814 1.80698364 -8.37046814 1.12698364 C-5.53832542 -0.28908772 -3.16827105 0.00100472 0 0 Z " fill="#FC561C" transform="translate(92.37046813964844,325.8730163574219)"/>
<path d="M0 0 C0.66 1.32 1.32 2.64 2 4 C0.35 4.66 -1.3 5.32 -3 6 C-3 5.34 -3 4.68 -3 4 C-3.66 3.67 -4.32 3.34 -5 3 C-3.35 2.01 -1.7 1.02 0 0 Z " fill="#FC571B" transform="translate(322,129)"/>
<path d="M0 0 C0.66 1.32 1.32 2.64 2 4 C0.35 4.66 -1.3 5.32 -3 6 C-3 5.34 -3 4.68 -3 4 C-3.66 3.67 -4.32 3.34 -5 3 C-3.35 2.01 -1.7 1.02 0 0 Z " fill="#FC581C" transform="translate(289,150)"/>
<path d="M0 0 C0.66 1.32 1.32 2.64 2 4 C0.35 4.66 -1.3 5.32 -3 6 C-3 5.34 -3 4.68 -3 4 C-3.66 3.67 -4.32 3.34 -5 3 C-3.35 2.01 -1.7 1.02 0 0 Z " fill="#FC591D" transform="translate(168,122)"/>
<path d="M0 0 C0 0.99 0 1.98 0 3 C-1.98 3.66 -3.96 4.32 -6 5 C-5.625 3.0625 -5.625 3.0625 -5 1 C-3 0 -3 0 0 0 Z " fill="#FC4D0C" transform="translate(13,73)"/>
<path d="M0 0 C0.66 1.32 1.32 2.64 2 4 C0.35 4.66 -1.3 5.32 -3 6 C-3 5.34 -3 4.68 -3 4 C-3.66 3.67 -4.32 3.34 -5 3 C-3.35 2.01 -1.7 1.02 0 0 Z " fill="#FC591D" transform="translate(261,63)"/>
<path d="M0 0 C0.66 1.32 1.32 2.64 2 4 C0.35 4.66 -1.3 5.32 -3 6 C-3 5.34 -3 4.68 -3 4 C-3.66 3.67 -4.32 3.34 -5 3 C-3.35 2.01 -1.7 1.02 0 0 Z " fill="#FC581C" transform="translate(35,57)"/>
<path d="M0 0 C1.32 1.65 2.64 3.3 4 5 C2.68 5.33 1.36 5.66 0 6 C-0.38218767 4.34385343 -0.71395102 2.67542976 -1 1 C-0.67 0.67 -0.34 0.34 0 0 Z " fill="#FC581A" transform="translate(241,164)"/>
<path d="M0 0 C0.66 0.33 1.32 0.66 2 1 C2 1.99 2 2.98 2 4 C-1 5 -1 5 -3.1875 4.0625 C-3.785625 3.711875 -4.38375 3.36125 -5 3 C-2.625 1.4375 -2.625 1.4375 0 0 Z " fill="#FC5519" transform="translate(127,148)"/>
<path d="M0 0 C1.32 1.65 2.64 3.3 4 5 C2.68 5.33 1.36 5.66 0 6 C-0.38218767 4.34385343 -0.71395102 2.67542976 -1 1 C-0.67 0.67 -0.34 0.34 0 0 Z " fill="#FC581B" transform="translate(224,142)"/>
<path d="M0 0 C1.32 0.33 2.64 0.66 4 1 C2.68 2.32 1.36 3.64 0 5 C-0.66 4.67 -1.32 4.34 -2 4 C-2 3.34 -2 2.68 -2 2 C-1.34 2 -0.68 2 0 2 C0 1.34 0 0.68 0 0 Z " fill="#FC4A09" transform="translate(325,127)"/>
<path d="M0 0 C1.32 1.65 2.64 3.3 4 5 C2.68 5.33 1.36 5.66 0 6 C-0.38218767 4.34385343 -0.71395102 2.67542976 -1 1 C-0.67 0.67 -0.34 0.34 0 0 Z " fill="#FC581B" transform="translate(207,120)"/>
<path d="M0 0 C1.32 1.65 2.64 3.3 4 5 C2.68 5.33 1.36 5.66 0 6 C-0.38218767 4.34385343 -0.71395102 2.67542976 -1 1 C-0.67 0.67 -0.34 0.34 0 0 Z " fill="#FC581B" transform="translate(190,98)"/>
<path d="M0 0 C0.66 0.33 1.32 0.66 2 1 C2 1.99 2 2.98 2 4 C-1 5 -1 5 -3.1875 4.0625 C-3.785625 3.711875 -4.38375 3.36125 -5 3 C-2.625 1.4375 -2.625 1.4375 0 0 Z " fill="#FC5519" transform="translate(220,89)"/>
</svg>
