<svg id="Layer_1" data-name="Layer 1" xmlns="http://www.w3.org/2000/svg" viewBox="0 0 64.71 64.71"><defs><style>.cls-1,.cls-3{fill:#fff;}.cls-1,.cls-2{stroke:#004c90;stroke-miterlimit:10;stroke-width:0.71px;}.cls-2{fill:#cecec8;}.cls-4{fill:#00498c;}</style></defs><circle class="cls-1" cx="32.35" cy="32.35" r="32"/><circle class="cls-2" cx="32.35" cy="32.35" r="23.79"/><path class="cls-3" d="M48,26.46a4.39,4.39,0,0,0-1.66-2,8,8,0,0,0-7.64-.23,4.5,4.5,0,0,0-2.25,3.1c-.45,2.05-.33,4.49,1.25,6a7.5,7.5,0,0,0,7,1.37,4.84,4.84,0,0,0,.73-.25h0a4.71,4.71,0,0,0,2-1.5A7.5,7.5,0,0,0,48,26.46ZM44,31.08a1.23,1.23,0,0,1-.75,1,2.55,2.55,0,0,1-2.17-.23,2,2,0,0,1-.64-1.52A9.82,9.82,0,0,1,40.65,27a1.6,1.6,0,0,1,1.52-.84,2,2,0,0,1,1.67.62,2.76,2.76,0,0,1,.28,1.29A18.86,18.86,0,0,1,44,31.08Zm-19.56,1H22.82V26.29h1.63V23.54H17.24v2.74h1.64v5.78H17.24v2.68h7.27V32.08ZM42.81,36a12.33,12.33,0,0,1-2.52,2.68h-.17c-.41-.25-.86-.45-1.26-.72a14.3,14.3,0,0,0,1.44-2h-.5a12.05,12.05,0,0,1-1.39,1.77A19.75,19.75,0,0,0,36.29,37l-.09-.06a8,8,0,0,0,.39-1h-.44l-.44.88a25.69,25.69,0,0,0-3-.4c-.06-.14,0-.34-.06-.48h-.43a2.17,2.17,0,0,1,0,.51,18.77,18.77,0,0,0-3,.36l-.44-.86a1.85,1.85,0,0,0-.47,0l.42,1h0c-.74.22-1.47.47-2.18.76h-.07a11.66,11.66,0,0,1-1.28-1.6c-.08-.28-.42-.12-.61-.15a14.5,14.5,0,0,0,1.47,2c-.44.27-.89.52-1.36.75A12,12,0,0,1,22,36a1.57,1.57,0,0,0-.53,0,13,13,0,0,0,5,4.43h0a13.92,13.92,0,0,0,4.17,1.33A13,13,0,0,0,43.35,36a1.06,1.06,0,0,0-.5,0Zm-6.88,1.45h0a8.21,8.21,0,0,1,2,.71A9.39,9.39,0,0,1,36.1,39.7c-.38.22-.76.47-1.16.66l-.7-.31v-.11A17.81,17.81,0,0,0,36,37.44ZM32.65,37a12.17,12.17,0,0,1,2.75.33h0a16.94,16.94,0,0,1-1.64,2.57,4.37,4.37,0,0,1-.81-.09h-.3V37Zm-3.18.29A13.89,13.89,0,0,1,32.13,37v2.74c-.34.08-.73.08-1.06.16a14.92,14.92,0,0,1-1.72-2.54l.1-.07Zm-2.66.87a11.62,11.62,0,0,1,2-.72h.06A23.21,23.21,0,0,0,30.54,40c-.24.13-.53.21-.74.34a10.91,10.91,0,0,1-3-2.17h0ZM29,40.85A12,12,0,0,1,25.1,39v0a7.71,7.71,0,0,1,1.22-.68,17.51,17.51,0,0,0,3,2.29A.9.9,0,0,1,29,40.85Zm6.12.21a12.18,12.18,0,0,1-5.44,0c0-.08.09-.09.13-.15A5.2,5.2,0,0,1,35.2,41c0,.1-.09.07-.12.1Zm1.57-.43-.77.25a1.6,1.6,0,0,1-.37-.25h0a15.73,15.73,0,0,0,3-2.26,6.58,6.58,0,0,1,1.27.7,11.58,11.58,0,0,1-3.13,1.6ZM22,22.28a14.57,14.57,0,0,1,1.33-1.61,7.92,7.92,0,0,1,1.28-1.09c.44.27.92.51,1.33.77a13.78,13.78,0,0,0-1.43,2,1.1,1.1,0,0,0,.51,0,11.38,11.38,0,0,1,1.39-1.72,22,22,0,0,0,2.12.71l.06.07-.42.93a1,1,0,0,0,.48,0c.15-.28.25-.58.42-.86a15.28,15.28,0,0,0,3,.36c.13.12,0,.36.08.5h.44v-.47a16.58,16.58,0,0,0,2.89-.38h.08l.44.84a1.85,1.85,0,0,0,.47,0L36,21.39h0a17.38,17.38,0,0,0,2.2-.77,13.56,13.56,0,0,1,1.43,1.76,2,2,0,0,0,.49,0,6.65,6.65,0,0,0-.71-1,6.87,6.87,0,0,0-.65-1V20.3l1.16-.66.16-.06a11.51,11.51,0,0,1,2.64,2.71,1.57,1.57,0,0,0,.53,0,13,13,0,0,0-9.81-5.74h0a5.94,5.94,0,0,0-1.46,0,2.15,2.15,0,0,0-.62,0,12.91,12.91,0,0,0-9.91,5.78,2.44,2.44,0,0,0,.54,0Zm6.85-1.43h-.07a13.35,13.35,0,0,1-2-.65v-.11a12.92,12.92,0,0,1,3-2.12c.24.11.5.18.75.29v.13a17.74,17.74,0,0,0-1.67,2.46Zm3.27.45a6,6,0,0,1-1.34,0A10.2,10.2,0,0,1,29.31,21,14.62,14.62,0,0,1,31,18.42l1.06.15v2.72Zm.5,0V18.56l1-.13A13.8,13.8,0,0,1,35.34,21a12.45,12.45,0,0,1-2.73.35Zm5.27-1.14a10.71,10.71,0,0,1-2,.68,27.4,27.4,0,0,0-1.7-2.54c.23-.12.51-.22.75-.36a11.31,11.31,0,0,1,3,2.18h0Zm-2.11-2.77a11.53,11.53,0,0,1,3.91,1.81v.05l-1.16.6H38.4a14.13,14.13,0,0,0-3-2.22.78.78,0,0,1,.34-.25Zm-.66-.17h0a5,5,0,0,1-5.28.18c-.09-.06-.25-.1-.27-.21a12.1,12.1,0,0,1,5.55,0ZM25,19.22a12.08,12.08,0,0,1,3.42-1.72c.06-.05.1-.09.15-.09h0c.13,0,.23-.12.34,0s.21.14.3.23a17,17,0,0,0-3,2.28A6.14,6.14,0,0,1,25,19.24h0Zm7.09,13a4.43,4.43,0,0,1-4.36-1.07c-.13-.16-.21-.36-.34-.51H25.17c0,1.3-.05,2.82,0,4.12h2.48V34a8.38,8.38,0,0,1,.84.43,6.9,6.9,0,0,0,5.63,0A3.38,3.38,0,0,0,35.83,31,3.86,3.86,0,0,0,33,28l-4-1.15-.29-.15a.46.46,0,0,1-.19-.43c.31-.54,1-.37,1.58-.36a4,4,0,0,1,3,1.59h2.35V23.65H33.06a2.45,2.45,0,0,1-.05.66l-.74-.38a6.56,6.56,0,0,0-6,.35,3.29,3.29,0,0,0-1.12,3.4,3.66,3.66,0,0,0,2.41,2.44c1.46.53,3,.88,4.5,1.39.14.07.34.22.3.39s-.13.21-.23.28Z"/><path class="cls-4" d="M26.91,46.17a3.12,3.12,0,0,1-.16,1,5.44,5.44,0,0,1-.44.91l-.57.77c-.2.26-.42.51-.64.75l-.55.66h2.36v1.41H22.85V50.38l1.85-2.53.27-.38a3.64,3.64,0,0,0,.23-.39,3,3,0,0,0,.18-.45,3,3,0,0,0,.07-.43,1,1,0,0,0,0-.25c0-.09-.07-.16-.11-.25a.51.51,0,0,0-.18-.21.52.52,0,0,0-.25-.07.72.72,0,0,0-.21,0,.46.46,0,0,0-.15.16.54.54,0,0,0-.1.2,1.29,1.29,0,0,0-.06.25v.26a.57.57,0,0,0,0,.26v.33H22.87v-.47a2.79,2.79,0,0,1,.08-.7,2.53,2.53,0,0,1,.21-.64,2,2,0,0,1,.38-.48,1.83,1.83,0,0,1,.58-.32,2.46,2.46,0,0,1,.8-.15,1.83,1.83,0,0,1,2,1.63,1.15,1.15,0,0,1,0,.37Zm.84,5.5,1.31-6.09H27.22V44.29h3.26V45l-1.31,6.66Zm3.19-2.16V46.45a2.78,2.78,0,0,1,.11-.9,2.37,2.37,0,0,1,.36-.73,1.54,1.54,0,0,1,.65-.5,2.39,2.39,0,0,1,.92-.18,2.69,2.69,0,0,1,.92.18,1.71,1.71,0,0,1,.63.5,2.49,2.49,0,0,1,.36.73,3.5,3.5,0,0,1,.13.9v3a3.24,3.24,0,0,1-.13.89,2.28,2.28,0,0,1-.37.73,1.75,1.75,0,0,1-.64.51,2.34,2.34,0,0,1-1.8,0,1.63,1.63,0,0,1-.65-.51,1.9,1.9,0,0,1-.37-.72,2.28,2.28,0,0,1-.12-.9Zm2.6,0V46.45c0-.71-.19-1.06-.57-1.06a.64.64,0,0,0-.27.07.75.75,0,0,0-.17.19.72.72,0,0,0-.09.27v3.79a.52.52,0,0,0,.05.28,1.07,1.07,0,0,0,.09.27.43.43,0,0,0,.16.19.37.37,0,0,0,.26.08.44.44,0,0,0,.29-.11.52.52,0,0,0,.18-.29,1.89,1.89,0,0,0,.09-.34v-.32Zm2.16,0V46.45a3.5,3.5,0,0,1,.13-.9,2.29,2.29,0,0,1,.37-.73,1.56,1.56,0,0,1,.63-.5,2.54,2.54,0,0,1,1.84,0,1.85,1.85,0,0,1,.64.5,2.61,2.61,0,0,1,.36.73,3.1,3.1,0,0,1,.12.9v3a2.9,2.9,0,0,1-.12.89,2.62,2.62,0,0,1-.36.73,1.75,1.75,0,0,1-.64.51,2.52,2.52,0,0,1-1.82,0,1.78,1.78,0,0,1-.65-.51,2.58,2.58,0,0,1-.37-.72,3.38,3.38,0,0,1-.13-.9Zm2.62,0V46.45c0-.71-.2-1.06-.58-1.06a.59.59,0,0,0-.26.07.72.72,0,0,0-.26.46,1.13,1.13,0,0,0,0,.26,1.13,1.13,0,0,0,0,.26v3a1,1,0,0,0,0,.25,2.33,2.33,0,0,0,.05.28q0,.15.09.27a.4.4,0,0,0,.17.19.37.37,0,0,0,.24.08.39.39,0,0,0,.31-.11.46.46,0,0,0,.17-.29.94.94,0,0,0,.08-.34.86.86,0,0,0,0-.32Zm2.75,2.16v-5.5h-.76V45.1l.32-.16L41,44.8l.22-.19a1.26,1.26,0,0,0,.25-.32h1.12v7.39Z"/><path class="cls-4" d="M9.65,45.51l-3,1.68-.41-.72,3-1.67ZM6.84,44.38l1.81-.78.33.75L5.84,45.74l-.25-.59,1.17-2.3-1.85.82-.33-.75,3.14-1.36.25.59ZM7.57,41,4.3,42l-.71-2.3.67-.18L4.72,41l.71-.19-.38-1.29.6-.16L6,40.64l1.29-.39Zm-1-4a2.24,2.24,0,0,1,0,.73,1.86,1.86,0,0,1-.29.62,1.82,1.82,0,0,1-1.1.68,1.23,1.23,0,0,1-.66,0,1.86,1.86,0,0,1-1.4-1.46,1.29,1.29,0,0,1,0-.73,1.67,1.67,0,0,1,.29-.62,1.92,1.92,0,0,1,.5-.39,1.62,1.62,0,0,1,.61-.24,1.47,1.47,0,0,1,.66,0,1.82,1.82,0,0,1,1.08.74,2.07,2.07,0,0,1,.28.67ZM5,38.26a2.72,2.72,0,0,0,.37-.13,1.35,1.35,0,0,0,.25-.28,1,1,0,0,0,.17-.33.9.9,0,0,0,0-.4,1.48,1.48,0,0,0-.1-.27.92.92,0,0,0-.28-.24,1.4,1.4,0,0,0-.33-.15,1.27,1.27,0,0,0-.39,0,1.9,1.9,0,0,0-.36.12.89.89,0,0,0-.3.24.75.75,0,0,0-.17.33,1,1,0,0,0,.16.8.89.89,0,0,0,.29.25.8.8,0,0,0,.34.11h.39ZM6.23,35l-3.43.16-.07-1.58a1,1,0,0,1,.07-.47,1.1,1.1,0,0,1,.25-.37,1.38,1.38,0,0,1,.36-.26.93.93,0,0,1,.41-.11,1.6,1.6,0,0,1,.31,0,1.66,1.66,0,0,1,.29.1l.23.17a1.3,1.3,0,0,1,.18.23l1.26-.82V33l-1,.73v.53H6.22ZM4.4,34.29v-.75a.41.41,0,0,0-.15-.24.72.72,0,0,0-.35-.08.53.53,0,0,0-.33.14.31.31,0,0,0-.11.26v.72h1Zm1.91-5.18-2-.18,1.34.92v.45l-1.53.55,2,.21v.79l-3.47-.28.08-.87,1.92-.78L2.89,28.85,3,28l3.41.3Zm-3-3,.15-.73,3.65-.49-.19.81-.8.1-.25,1.07.7.43-.19.81Zm2.26-.26L4.3,26l1.09.68Zm-.19-4.2-.35,1,2.62.86-.26.79-2.57-.87-.34,1-.67-.21,1-2.81.67.22Zm2.73.63L5,21l.33-.74,3.13,1.36Zm1.29-2.6a1.82,1.82,0,0,1-.47.56,1.74,1.74,0,0,1-1.28.34,2.09,2.09,0,0,1-.56-.21,1.4,1.4,0,0,1-.55-.4,1.6,1.6,0,0,1-.31-.59,1.44,1.44,0,0,1-.06-.68,1.75,1.75,0,0,1,.68-1.24,1.86,1.86,0,0,1,.62-.29,1.83,1.83,0,0,1,.66,0,1.7,1.7,0,0,1,1.12.68,1.9,1.9,0,0,1,.31.6,2.58,2.58,0,0,1,.07.68,1.87,1.87,0,0,1-.21.6Zm-2,0a.76.76,0,0,0,.36.14.59.59,0,0,0,.37,0,.81.81,0,0,0,.35-.14,1.12,1.12,0,0,0,.27-.3A1,1,0,0,0,8.91,19a2.66,2.66,0,0,0-.07-.37,3,3,0,0,0-.19-.3A1.14,1.14,0,0,0,8.34,18,1.4,1.4,0,0,0,8,17.85a1.71,1.71,0,0,0-.32,0,.75.75,0,0,0-.34.15.88.88,0,0,0-.27.31.7.7,0,0,0-.11.39.76.76,0,0,0,.06.37.64.64,0,0,0,.21.32,1.53,1.53,0,0,0,.31.26Zm1.87-3.56,1.57,1.18-.5.65-2.69-2.1.41-.51,2.6-.1L9.07,14l.5-.66,2.74,2.05-.39.53ZM13.17,11H13l-.24.08-.29.13a1,1,0,0,0-.25.19c-.21.2-.26.37-.12.5a.14.14,0,0,0,.13.07.25.25,0,0,0,.17,0l.22-.09.29-.17.44-.2a2.11,2.11,0,0,1,.38-.11.86.86,0,0,1,.35.06,1.16,1.16,0,0,1,.34.24,1.23,1.23,0,0,1,.26.42,1.62,1.62,0,0,1,0,.44,1.39,1.39,0,0,1-.18.43,3,3,0,0,1-.31.38,1.42,1.42,0,0,1-.31.25c-.11.08-.23.15-.35.22L13.2,14a1.27,1.27,0,0,1-.37.1l-.18-.75h.16l.29-.09a1.35,1.35,0,0,0,.34-.17,1.19,1.19,0,0,0,.33-.22c.21-.2.26-.36.14-.48a.19.19,0,0,0-.15-.07h-.21c-.08,0-.16.07-.26.13l-.31.17-.42.18-.34.06a.73.73,0,0,1-.3-.06.86.86,0,0,1-.28-.21,1,1,0,0,1-.26-.42,1.09,1.09,0,0,1,0-.44,1.15,1.15,0,0,1,.16-.45,1.35,1.35,0,0,1,.31-.4,1.06,1.06,0,0,1,.29-.22,1.49,1.49,0,0,1,.3-.18.85.85,0,0,1,.31-.13l.28-.08.2.72ZM17,10.19l.42.56-2,1.5-2-2.71L15.3,8.07l.41.56-1.27,1,.4.53,1.1-.85.4.5-1.11.86.44.57,1.33-1Zm-.44-1a1.76,1.76,0,0,1-.21-1.25,1.84,1.84,0,0,1,.32-.6,1.53,1.53,0,0,1,.55-.49A1.66,1.66,0,0,1,18,6.59a1.4,1.4,0,0,1,.75.17l-.32.7a.77.77,0,0,0-.24-.12h-.48l-.2.1a.81.81,0,0,0-.3.28.7.7,0,0,0-.12.36,1.15,1.15,0,0,0,0,.37.7.7,0,0,0,.15.34,1.24,1.24,0,0,0,.57.49.81.81,0,0,0,.38,0,.93.93,0,0,0,.42-.15l.19-.06A1.64,1.64,0,0,0,19,8.85a.4.4,0,0,0,.09-.22.53.53,0,0,0,0-.25h.78a2.8,2.8,0,0,1,0,.41,2.43,2.43,0,0,1-.18.4,2.6,2.6,0,0,1-.3.36,1.73,1.73,0,0,1-.35.27,1.83,1.83,0,0,1-2-.12,2,2,0,0,1-.45-.5Zm4.95-1.5a.64.64,0,0,0,.41-.52,1,1,0,0,0,0-.35,2.42,2.42,0,0,0-.12-.35L21.1,4.85l.74-.34.7,1.61a2.47,2.47,0,0,1,.19.64,2.15,2.15,0,0,1,0,.62,1.23,1.23,0,0,1-.3.52,1.91,1.91,0,0,1-.59.41,1.54,1.54,0,0,1-.72.16,1.13,1.13,0,0,1-.58-.14,1.53,1.53,0,0,1-.48-.39,2,2,0,0,1-.33-.56L19,5.85l.75-.32.7,1.59a1.94,1.94,0,0,0,.2.33.79.79,0,0,0,.25.23.83.83,0,0,0,.29.11.64.64,0,0,0,.36-.06Zm2.16-.14-1-3.29,1.53-.41a1.24,1.24,0,0,1,.47,0,1.28,1.28,0,0,1,.76.45,1.05,1.05,0,0,1,.24.69,1.5,1.5,0,0,1,0,.3,1.53,1.53,0,0,1-.11.27,1.31,1.31,0,0,1-.17.24l1.1,1-.89.27-.93-1-.5.16.31,1.06-.81.22Zm.27-2,.73-.2a.34.34,0,0,0,.2-.19.58.58,0,0,0-.2-.65.28.28,0,0,0-.28,0l-.72.21.26.88Zm2.81,1.09-.68-3.33.86-.11.68,3.35Zm3.72-3.23-1.07.12.32,2.72-.81.09-.31-2.71-1.08.12-.07-.69,3-.34Zm1.11-.7.77,1.55.75-1.58H34L32.76,5V6.09H32V5l-1.3-2.23Zm6.2,4,.34-2-1,1.35L36.65,6l-.52-1.66-.35,2L35,6.17l.57-3.38.88.15.63,1.91,1.2-1.61.87.14L38.56,6.8l-.75-.13ZM41,4l.69.22.2,3.61-.8-.25V6.8L40,6.43l-.48.66-.8-.24L41,4Zm.1,2.25V5l-.77,1Zm2.5.25-.82,1.76L42,7.85l1.41-3.09L44,5l.61,2.54.84-1.83.75.35L44.83,9.21l-.6-.28-.65-2.46Zm4.31.6.62.4-.79,3.56L47,10.64l.19-.81-.94-.58-.61.47L45,9.28l3-2.21Zm-.47,2.21.3-1.22-1,.8.7.45Zm2.47,3.07a1.25,1.25,0,0,1-1-.31,1.38,1.38,0,0,1-.43-.5,1.67,1.67,0,0,1-.12-1.29,1.7,1.7,0,0,1,.36-.64,1.37,1.37,0,0,1,.52-.43A1.65,1.65,0,0,1,49.85,9a1.92,1.92,0,0,1,.67.07,1.88,1.88,0,0,1,.62.34,1.83,1.83,0,0,1,.54.69,1.6,1.6,0,0,1,.09.78H51a.85.85,0,0,0,0-.5,1.33,1.33,0,0,0-.29-.41,2.16,2.16,0,0,0-.34-.17.77.77,0,0,0-.37,0,1.73,1.73,0,0,0-.34.14.91.91,0,0,0-.31.27,1,1,0,0,0-.21.37,1.19,1.19,0,0,0-.06.37.68.68,0,0,0,.1.35.81.81,0,0,0,.24.31,1.15,1.15,0,0,0,1,.21l.07-.08L50,11.34l.37-.45,1,.87-1.2,1.31-.48-.4.23-.28Zm2.76,2.23-.5.49-1.73-1.8,2.48-2.39,1.75,1.78-.5.47L53,12l-.48.46,1,1-.46.43-1-1-.52.5Zm1.39,3,1.63-1.23L54,16.68l-.28-.35.75-1.51L52.85,16l-.49-.66,2.76-2,.49.71-.87,1.76,2-.31.52.7-2.75,2L54,17.58Zm2.52,2.92-.61.33-1.21-2.17,3-1.65,1.18,2.13-.59.34-.79-1.42-.59.32.7,1.15-.55.31-.67-1.22-.65.37.81,1.45Zm1.66.63-1.8.67-.29-.75,3.18-1.25.24.61L58.3,22.74,60.15,22l.31.77L57.28,24,57,23.4l1.22-2.25Zm2.5,5.23-.27-1-2.64.71-.16-.87,2.64-.7-.28-1,.69-.18.75,2.88Zm.19,3.72L61,30a.62.62,0,0,0,.08-.24.73.73,0,0,0,.07-.3.58.58,0,0,0,0-.32c0-.29-.15-.43-.33-.41l-.13.06-.1.1-.06.24a.61.61,0,0,1-.06.33,3.4,3.4,0,0,1-.09.46,1.22,1.22,0,0,1-.16.37.78.78,0,0,1-.26.25,1.06,1.06,0,0,1-.39.13,1,1,0,0,1-.5-.06.9.9,0,0,1-.36-.26,1.44,1.44,0,0,1-.21-.41,1.41,1.41,0,0,1-.11-.47,2.8,2.8,0,0,1,0-.41v-.41a2.49,2.49,0,0,1,.09-.37,1.49,1.49,0,0,1,.19-.45l.72.29a.29.29,0,0,1-.08.14.85.85,0,0,0-.1.28,1.43,1.43,0,0,0-.09.37,2.8,2.8,0,0,0,0,.41c0,.28.14.42.3.39a.24.24,0,0,0,.16-.08.41.41,0,0,0,.09-.19l.07-.29a.7.7,0,0,1,0-.32,1.89,1.89,0,0,1,.11-.44A1.87,1.87,0,0,1,60,28.1a.78.78,0,0,1,.24-.2,1.06,1.06,0,0,1,.82,0,1.36,1.36,0,0,1,.38.24,2,2,0,0,1,.26.39,1.73,1.73,0,0,1,.13.86,2,2,0,0,1,0,.35,2.8,2.8,0,0,1-.09.31,1.36,1.36,0,0,1-.11.28l-.7-.28ZM62,31.69l-1.58.73,1.55.8v.89l-2.24-1.29H58.65V32h1.16l2.27-1.21v.9Zm-1.26,4.8.09-.09c0-.07.07-.14.14-.2a2.71,2.71,0,0,0,.13-.3,1.67,1.67,0,0,0,.08-.32c0-.29,0-.45-.24-.47H60.8a.49.49,0,0,0-.12.13c0,.07-.07.14-.1.23l-.13.32a4.28,4.28,0,0,1-.2.43,1.12,1.12,0,0,1-.24.32.7.7,0,0,1-.3.19,1,1,0,0,1-.42,0,1,1,0,0,1-.48-.16,1.06,1.06,0,0,1-.41-.77,1.4,1.4,0,0,1,0-.5,1.34,1.34,0,0,1,.07-.39,1.07,1.07,0,0,1,.13-.38,1.53,1.53,0,0,1,.17-.37,2.73,2.73,0,0,1,.21-.3l.65.42-.1.12a1.23,1.23,0,0,0-.17.25c0,.1-.11.22-.16.35a1.07,1.07,0,0,0-.1.38c0,.29,0,.45.21.47a.17.17,0,0,0,.17,0,.59.59,0,0,0,.13-.17,1.57,1.57,0,0,0,.12-.26l.13-.32c.06-.13.13-.27.2-.4a.7.7,0,0,1,.23-.28.67.67,0,0,1,.28-.14h.34a1.15,1.15,0,0,1,.46.16,1.22,1.22,0,0,1,.32.32,1.92,1.92,0,0,1,.17.44,4.17,4.17,0,0,1,0,.5,1.45,1.45,0,0,1-.08.36c0,.11-.09.22-.13.32a1.08,1.08,0,0,1-.16.3l-.16.25-.61-.43Zm-.43,3.71.24-1.05-2.66-.6.17-.8,2.67.61L61,37.3l.68.15L61,40.35ZM57.4,42.37l-.66-.23.8-2.35,3.25,1.12-.8,2.3L59.33,43l.53-1.52-.63-.22-.45,1.32-.6-.21L58.65,41l-.7-.24-.53,1.58Zm-2,2.56,1.84.92-1-1.36.18-.39H58.1l-1.83-.91.35-.72L59.69,44l-.39.8h-2l1.19,1.61-.39.8L55,45.67Z"/><path class="cls-4" d="M20.39,57.19a1.33,1.33,0,0,1,.35-.53,1.52,1.52,0,0,1,.52-.38,1.73,1.73,0,0,1,.68-.15,1.75,1.75,0,0,1,.74.15,1.61,1.61,0,0,1,.71.53,1.25,1.25,0,0,1,.29.7l-.73.12a1.15,1.15,0,0,0-.06-.28.53.53,0,0,0-.13-.19.46.46,0,0,0-.18-.16.44.44,0,0,0-.2-.11.71.71,0,0,0-.4-.07.76.76,0,0,0-.36.11,1,1,0,0,0-.3.24,1.42,1.42,0,0,0-.19.32,1.17,1.17,0,0,0-.08.38.81.81,0,0,0,0,.38,1.14,1.14,0,0,0,.18.32,1,1,0,0,0,.32.22l.23.07H22a.56.56,0,0,0,.23-.06.51.51,0,0,0,.22-.15l.47.62a1.13,1.13,0,0,1-.35.21,1,1,0,0,1-.42.09H21.7a2.4,2.4,0,0,1-.44-.12A1.7,1.7,0,0,1,20.2,57.8a1.66,1.66,0,0,1,.14-.63Zm5.44,3-.18.66-2.39-.66.94-3.3,2.34.67-.2.66-1.55-.45-.2.64,1.36.38-.19.62L24.41,59l-.19.7Zm.47.82.6-3.35,1.58.25a1,1,0,0,1,.43.18,1,1,0,0,1,.32.32,1.38,1.38,0,0,1,.18.41,1.55,1.55,0,0,1,0,.43.62.62,0,0,1-.09.29.69.69,0,0,1-.17.26.76.76,0,0,1-.2.2l-.27.14.55,1.38-.9-.14-.5-1.2-.51-.09-.18,1.09-.8-.14Zm1.09-1.63.74.11a.33.33,0,0,0,.27-.09.52.52,0,0,0,.16-.33.58.58,0,0,0-.06-.36.43.43,0,0,0-.24-.17l-.7-.11Zm5.15-.53H31.47l-.13,2.78h-.82l.13-2.78H29.58v-.68l3,.15Zm.38,2.71-.07-3.41h.8l.06,3.41Zm1.61,0-.37-3.41,2.38-.25.07.68L35,58.76l.08.73,1.3-.14.07.64-1.3.15.15,1.34Zm3-.38-.72-3.33.8-.15.64,3.36Zm3.79-1.64.18.67-2.39.66-.92-3.3,2.35-.64.19.66L39.16,58l.18.65,1.31-.34.16.63-1.34.37.19.71Zm.83.46-1.36-3.15,1.22-.5a1.93,1.93,0,0,1,.75-.15,1.39,1.39,0,0,1,.64.13,1.4,1.4,0,0,1,.52.38,1.84,1.84,0,0,1,.5,1.27,1.6,1.6,0,0,1-.11.64,1.69,1.69,0,0,1-.39.53,2,2,0,0,1-.63.38l-1.22.5Zm1.43-2.44a1.65,1.65,0,0,0-.22-.36,1.23,1.23,0,0,0-.28-.23,1.17,1.17,0,0,0-.36-.08,1,1,0,0,0-.39.08l-.46.19.78,1.92.47-.18a.93.93,0,0,0,.28-.28.66.66,0,0,0,.2-.67,1.06,1.06,0,0,0-.09-.4Z"/></svg>