<?xml version="1.0" encoding="utf-8"?>
<!-- Generator: Adobe Illustrator 27.5.0, SVG Export Plug-In . SVG Version: 6.00 Build 0)  -->
<svg version="1.1" xmlns="http://www.w3.org/2000/svg" xmlns:xlink="http://www.w3.org/1999/xlink" x="0px" y="0px"
	 viewBox="0 0 226.8 83.9" style="enable-background:new 0 0 226.8 83.9;" xml:space="preserve">
<style type="text/css">
	.st0{fill:#66225C;}
	.st1{fill-rule:evenodd;clip-rule:evenodd;fill:#4C262D;}
	.st2{fill-rule:evenodd;clip-rule:evenodd;fill:#66225C;}
	.st3{fill-rule:evenodd;clip-rule:evenodd;fill:#996F97;}
	.st4{display:none;}
	.st5{display:inline;fill:#0F7433;}
	.st6{display:inline;fill:#0B5C2B;}
	.st7{display:inline;fill:#4EAF4C;}
</style>
<g id="Layer_1">
	<g>
		<g>
			<g>
				<g>
					<g>
						<rect x="98.5" y="19.5" class="st0" width="6.9" height="42.6"/>
						<polygon class="st0" points="136.4,62.1 129.5,62.1 129.5,25.8 109.9,25.8 109.9,19.5 156.1,19.5 156.1,25.8 136.4,25.8 
													"/>
						<rect x="160.6" y="19.5" class="st0" width="6.9" height="42.6"/>
						<polygon class="st0" points="215.2,62.1 176.2,62.1 176.2,19.5 183,19.5 183,55.8 215.2,55.8 						"/>
					</g>
				</g>
				<g>
					<path class="st0" d="M223.4,23.2c0,2.6-2.1,4.7-4.8,4.7s-4.8-2.1-4.8-4.7c0-2.6,2.1-4.7,4.9-4.7
						C221.3,18.5,223.4,20.6,223.4,23.2z M214.9,23.2c0,2.1,1.6,3.8,3.7,3.8c2,0,3.6-1.7,3.6-3.7c0-2.1-1.5-3.8-3.6-3.8
						C216.5,19.5,214.9,21.1,214.9,23.2z M217.8,25.6h-1.1v-4.7c0.4-0.1,1-0.1,1.8-0.1c0.9,0,1.3,0.1,1.6,0.4c0.3,0.2,0.5,0.5,0.5,1
						c0,0.6-0.4,0.9-1,1.1v0.1c0.5,0.1,0.7,0.5,0.8,1.1c0.1,0.7,0.3,1,0.3,1.1h-1.1c-0.1-0.2-0.2-0.6-0.4-1.1
						c-0.1-0.5-0.4-0.7-1-0.7h-0.5V25.6z M217.8,23h0.5c0.6,0,1.1-0.2,1.1-0.7c0-0.4-0.3-0.7-1-0.7c-0.3,0-0.5,0-0.6,0.1V23z"/>
				</g>
			</g>
			<g>
				<path class="st1" d="M41.4,67.4c10.6,4,22.1-0.1,28.5-8c-5.4,5.5-14.1,8.3-22,5.1c-11.9-4.8-16.1-14.4-12.7-25
					c3.4-10.6,13.8-17,25-13.4c8.1,2.6,13.7,9.4,14.9,17c-0.7-10.2-7.8-19.6-18.6-23c-13.8-4.4-28.7,2.6-32.8,15.6
					C19.6,48.8,27.9,62.3,41.4,67.4"/>
				<path class="st2" d="M65.8,41.2c0.8,11.9-8.2,22.3-20.2,23.1c-8.6,0.6-16.8-4.5-20.7-11.6c4.4,9.9,15,17,26.5,16.3
					c14.7-1,25.8-13.8,24.8-28.4C75.3,25.9,65,29.3,65.8,41.2"/>
				<path class="st1" d="M40.2,77.8c15.2-0.7,27.7-10.9,32.1-24.5c-4.2,9.9-13.8,17.1-25.2,17.6c-15.8,0.7-29.2-11.6-29.9-27.4
					c-0.7-15.8,11.6-29.2,27.4-29.9C56,13,66.2,19.4,71.2,28.9c-5.6-13.2-19-22.3-34.1-21.6C17.7,8.1,2.6,24.6,3.4,44
					C4.3,63.5,20.8,78.6,40.2,77.8"/>
				<path class="st3" d="M79,38.1c-0.3-6.5-2.5-11-4.7-15.2c-1,1.5-2,2.9-2.9,4c-5.2-7.3-14-11.9-23.6-11.2
					C36.4,16.5,27.1,24.4,24,34.8c3-7.6,10.1-13.2,18.7-13.8c25.7,0,23.4,24,16.8,34.3c-5.6,9.2-14.9,16-25.2,16.5
					C22,72.4,11.1,65.6,5.7,55c5.6,14.5,20.4,24.6,36.8,23.8C63.6,78,80,59.6,79,38.1"/>
				<path class="st2" d="M80.4,52.2c0.4-2.6,0.7-5.3,0.8-8.1C81.3,22.5,63.8,5,42.2,5C23.4,5,7.6,18.1,4,35.8
					C8.5,22,20.4,12.1,34.4,12.1c17.8,0,32.3,15.9,32.3,35.5c0,3.8-2.2,32.4,24,29.7C89,76.8,76.5,76.9,80.4,52.2"/>
			</g>
		</g>
	</g>
</g>
<g id="Layer_2" class="st4">
	<rect x="-29.2" y="132.7" class="st5" width="7.1" height="7.4"/>
	<rect x="-10.8" y="136.6" class="st6" width="11.8" height="7.1"/>
	<rect x="146.7" y="167.4" class="st6" width="11.8" height="7.1"/>
	<rect x="248.7" y="152.4" class="st7" width="6.9" height="10.4"/>
	<rect x="-105.2" y="152.3" class="st7" width="6.9" height="10.4"/>
</g>
</svg>
